<svg id="Trash_Line" data-name="Trash / Line" xmlns="http://www.w3.org/2000/svg" width="20" height="20" viewBox="0 0 20 20">
  <path id="Style" d="M14.167,18.335H5.833a2.5,2.5,0,0,1-2.5-2.5V6.668H2.5A.833.833,0,0,1,2.5,5H6.666V3.61A2.01,2.01,0,0,1,8.68,1.667h2.64A2.009,2.009,0,0,1,13.333,3.61V5H17.5a.833.833,0,1,1,0,1.667h-.833v9.166A2.5,2.5,0,0,1,14.167,18.335ZM5,6.666v9.167a.834.834,0,0,0,.832.833h8.334A.834.834,0,0,0,15,15.834V6.666ZM8.75,3.334c-.246,0-.417.145-.417.274V5h3.334V3.608c0-.13-.171-.274-.417-.274Z" fill="#26221c"/>
</svg>
